<?xml version="1.0" standalone="no"?>
<!DOCTYPE svg PUBLIC "-//W3C//DTD SVG 20010904//EN"
 "http://www.w3.org/TR/2001/REC-SVG-20010904/DTD/svg10.dtd">
<svg version="1.0" xmlns="http://www.w3.org/2000/svg"
 width="867.000000pt" height="804.000000pt" viewBox="0 0 867.000000 804.000000"
 preserveAspectRatio="xMidYMid meet">
<metadata>
Created by potrace 1.16, written by Peter Selinger 2001-2019
</metadata>
<g transform="translate(0.000000,804.000000) scale(0.100000,-0.100000)"
fill="#000000" stroke="none">
<path d="M1652 8007 c-15 -16 -283 -795 -837 -2435 -730 -2158 -816 -2418
-813 -2464 l3 -52 330 -234 c182 -128 494 -349 695 -491 355 -250 914 -646
1330 -940 113 -79 279 -197 370 -261 91 -64 336 -237 545 -385 1041 -736 1017
-720 1055 -719 30 0 113 55 580 385 300 212 608 430 685 484 77 54 385 271
685 483 300 212 682 482 850 600 168 118 359 253 425 300 66 47 163 115 215
152 52 37 165 116 250 177 85 60 256 181 380 268 225 158 239 170 252 212 4
16 -238 753 -808 2460 -674 2019 -819 2442 -840 2461 l-25 22 -2653 0 -2653 0
-21 -23z m5534 -867 c139 -415 489 -1461 779 -2325 635 -1895 580 -1726 563
-1736 -7 -4 -184 -128 -393 -275 -209 -147 -483 -340 -610 -429 -884 -621
-1064 -748 -1180 -830 -276 -195 -1981 -1393 -2001 -1405 -20 -12 -51 7 -430
275 -225 158 -438 309 -474 335 -36 26 -348 247 -695 492 -1083 764 -2201
1555 -2427 1715 l-217 154 26 72 c14 40 165 484 335 987 170 503 352 1041 405
1195 155 459 524 1546 697 2057 l161 478 2604 -3 2604 -2 253 -755z"/>
<path d="M3845 7670 c-1499 -6 -1418 -3 -1580 -56 -242 -80 -460 -279 -537
-490 -14 -38 -271 -807 -571 -1709 -364 -1093 -550 -1666 -558 -1718 -14 -92
-7 -234 17 -327 44 -173 179 -388 339 -538 54 -50 343 -262 822 -602 2108
-1498 1929 -1373 2061 -1439 278 -140 599 -147 870 -21 45 22 102 52 125 68
23 16 107 74 187 129 265 182 1446 993 2065 1418 336 230 640 443 677 473 122
98 210 239 256 411 22 84 25 117 26 261 1 269 41 128 -604 2075 -148 446 -316
955 -375 1132 -59 178 -124 359 -146 403 -127 264 -331 439 -594 512 -78 21
-96 22 -585 23 -278 0 -1130 -2 -1895 -5z m2463 -153 c111 -32 223 -98 307
-182 127 -125 194 -249 280 -519 32 -99 66 -203 76 -233 l18 -53 -145 0 -144
0 0 225 c0 212 -1 225 -18 225 -26 0 -102 57 -102 76 0 13 -10 15 -65 9 -71
-8 -107 1 -162 42 -90 66 -209 69 -282 7 l-31 -25 -32 24 c-85 63 -171 61
-286 -8 l-77 -46 -72 6 c-58 5 -73 3 -73 -8 0 -20 -53 -67 -86 -76 l-29 -7 -5
-220 -5 -219 -120 0 c-176 1 -184 3 -223 75 -27 48 -38 60 -58 60 -27 0 -44
-30 -65 -110 l-12 -45 -23 138 c-24 143 -47 197 -83 197 -39 0 -41 -13 -42
-330 -1 -338 -5 -393 -31 -398 -17 -3 -18 25 -18 476 0 264 -3 493 -6 510 -13
66 -80 95 -120 51 -18 -20 -19 -48 -24 -588 l-5 -566 -22 -3 c-16 -2 -23 3
-28 26 -3 16 -5 292 -3 615 3 581 3 586 -18 614 -31 41 -67 42 -104 2 l-30
-33 -2 -665 c-3 -617 -4 -665 -20 -675 -14 -8 -22 -7 -35 7 -17 17 -18 62 -21
680 l-2 662 -26 28 c-32 34 -63 34 -95 1 l-24 -26 -1 -609 c-1 -636 -1 -648
-42 -623 -16 10 -17 53 -19 569 -2 487 -4 560 -18 581 -26 40 -86 31 -110 -17
-13 -23 -15 -108 -15 -519 0 -433 -2 -491 -15 -497 -9 -3 -19 -2 -23 2 -4 3
-9 164 -12 355 -5 359 -7 376 -45 368 -36 -6 -56 -52 -77 -174 -27 -158 -27
-159 -48 -85 -29 102 -61 108 -114 21 -25 -41 -46 -62 -64 -67 -15 -4 -85 -8
-157 -8 l-130 0 -3 213 c-2 191 -4 212 -19 212 -24 0 -93 50 -93 67 0 20 -22
25 -69 14 -54 -12 -112 4 -173 47 -83 59 -187 62 -271 6 -34 -23 -41 -24 -55
-11 -76 66 -202 68 -285 4 -53 -40 -114 -57 -172 -46 -38 7 -51 6 -54 -3 -8
-26 -73 -78 -97 -78 l-24 0 0 -215 0 -215 -115 0 c-63 0 -115 4 -115 8 0 5 42
135 93 289 57 172 106 302 127 338 116 194 330 326 588 364 31 5 886 9 1898
10 l1842 1 80 -23z m-2088 -940 c0 -673 2 -704 45 -727 32 -17 75 -8 97 20 18
24 19 55 18 681 0 645 1 656 20 677 26 27 27 27 41 0 9 -17 13 -175 13 -629 1
-670 -2 -639 66 -639 73 0 69 -30 72 597 3 592 5 611 46 570 16 -16 17 -57 19
-513 2 -320 7 -502 13 -515 8 -14 21 -19 51 -19 34 0 41 4 51 28 8 18 14 137
18 362 6 368 9 377 49 132 24 -141 33 -165 64 -160 19 3 25 16 42 85 11 45 23
84 26 87 3 3 18 -17 35 -44 16 -27 40 -54 54 -61 15 -8 84 -14 173 -17 l147
-4 0 -337 c0 -186 3 -340 6 -344 4 -3 23 0 43 8 20 7 150 51 290 96 205 65
258 79 273 70 22 -14 73 -14 99 -1 15 9 77 -8 299 -80 154 -50 282 -95 285
-101 20 -32 25 33 25 347 l0 345 152 -3 151 -3 124 -370 c67 -203 123 -373
123 -377 0 -5 -1314 -8 -2920 -8 -1606 0 -2920 1 -2920 3 0 1 56 171 125 377
69 206 125 376 125 378 0 1 56 2 125 2 l125 0 0 -360 0 -361 22 12 c13 7 48
20 78 29 30 10 153 49 272 89 214 70 218 71 251 55 30 -14 37 -14 71 0 32 13
42 14 74 1 20 -7 143 -48 272 -90 129 -42 239 -81 245 -86 5 -5 13 -9 17 -9 4
0 8 162 8 360 l0 360 128 1 c177 1 208 10 252 77 38 59 41 57 61 -33 7 -33 16
-68 21 -77 10 -20 43 -24 53 -8 4 6 20 83 36 172 16 89 33 166 39 172 7 7 10
-95 11 -315 0 -377 3 -392 64 -397 29 -3 43 1 52 14 10 14 13 123 13 505 0
293 4 498 10 513 11 29 35 34 44 10 3 -9 6 -262 6 -563 0 -531 1 -549 20 -573
40 -51 118 -35 121 25 1 12 1 284 -1 605 -2 532 -1 584 15 608 16 25 17 25 36
8 18 -17 19 -38 19 -657z m1724 529 c18 -8 43 -24 55 -37 21 -23 21 -27 21
-480 l0 -457 -42 15 c-87 30 -187 -1 -281 -87 -62 -56 -124 -100 -143 -100
-12 0 -14 90 -14 534 l0 533 49 -5 c50 -4 72 4 201 74 50 27 104 31 154 10z
m347 -11 c115 -65 149 -78 200 -72 l49 6 0 -534 c0 -432 -2 -535 -13 -535 -18
0 -83 45 -162 112 -98 83 -189 108 -270 74 l-35 -15 0 455 c0 307 4 462 11
476 15 27 85 58 135 58 26 0 57 -9 85 -25z m-3789 -30 l38 -25 0 -465 0 -466
-22 12 c-13 7 -50 13 -83 13 -77 1 -130 -25 -221 -105 -70 -62 -136 -103 -148
-92 -3 4 -6 244 -6 535 l0 528 63 0 c50 0 71 6 112 30 110 65 128 71 179 66
29 -3 65 -16 88 -31z m343 -8 c72 -48 107 -59 164 -55 l51 3 0 -532 c0 -366
-3 -533 -10 -533 -23 0 -74 34 -130 85 -118 109 -213 135 -322 90 -17 -7 -18
18 -18 448 l0 456 23 26 c54 62 157 68 242 12z m3149 -956 c13 -11 14 -15 1
-27 -8 -8 -18 -21 -22 -29 -5 -7 -118 -49 -253 -94 -208 -68 -241 -76 -217
-55 15 13 35 24 43 24 29 0 93 40 161 100 94 84 133 102 209 98 34 -2 69 -10
78 -17z m274 -5 c26 -14 63 -39 82 -57 61 -57 118 -97 157 -110 42 -13 86 -39
79 -46 -2 -3 -108 29 -235 71 -188 61 -236 81 -256 103 -30 35 -30 37 -2 51
41 20 124 14 175 -12z m-3769 -7 c36 -13 36 -12 14 -50 -16 -27 -40 -37 -253
-105 -129 -42 -239 -79 -245 -82 -5 -3 -1 4 9 16 11 12 24 22 30 22 29 0 122
54 169 98 111 104 188 132 276 101z m289 -13 c26 -13 75 -49 110 -80 62 -56
128 -96 156 -96 8 0 28 -11 43 -25 l28 -25 -45 15 c-256 81 -450 148 -450 156
0 5 -9 18 -20 29 l-21 21 33 14 c50 22 112 18 166 -9z m-762 -504 c54 -37 385
-261 734 -497 349 -237 716 -485 815 -552 565 -382 731 -493 739 -493 7 0 205
134 1721 1167 l649 443 301 -2 300 -3 62 -180 c34 -99 61 -188 60 -197 -1 -10
-497 -360 -1225 -864 -1000 -693 -1221 -849 -1210 -860 7 -7 122 -84 255 -171
932 -609 1553 -1018 1553 -1022 0 -5 -108 -80 -536 -373 l-113 -76 -913 607
-913 608 -905 -605 c-497 -333 -909 -605 -915 -605 -5 0 -60 36 -121 79 -61
43 -203 144 -317 224 -113 80 -206 147 -206 150 0 3 27 24 62 46 67 45 72 49
927 637 766 527 770 529 770 538 0 6 -256 190 -1120 804 -850 604 -1207 859
-1219 870 -11 11 -4 41 44 187 32 95 62 181 67 191 8 16 32 17 281 17 l273 0
100 -68z m2336 13 c55 -78 104 -237 123 -400 l7 -60 23 92 c53 209 168 352
306 380 29 5 32 4 25 -13 -41 -100 -88 -320 -100 -459 -6 -69 -6 -69 8 -33 53
137 207 259 377 302 118 29 121 25 46 -52 -132 -133 -229 -296 -264 -438 -9
-38 -17 -71 -19 -72 -1 -2 -39 10 -84 27 -126 49 -280 71 -493 71 -240 0 -378
-23 -559 -95 -14 -6 -18 -2 -18 15 0 39 -60 202 -98 265 -46 77 -105 154 -179
233 -66 70 -63 74 42 47 170 -43 297 -142 377 -295 l19 -35 -6 70 c-9 95 -49
294 -79 385 -29 89 -24 94 59 56 115 -52 205 -182 250 -359 l22 -88 17 111
c19 120 46 221 78 285 26 51 66 105 79 105 5 0 24 -20 41 -45z m188 -756 c88
-12 210 -43 251 -64 17 -9 29 -24 29 -35 0 -24 6 -24 -82 0 -247 67 -604 68
-843 1 -72 -20 -91 -17 -79 13 14 37 117 64 329 85 61 6 126 13 145 15 44 5
153 -2 250 -15z m75 -155 c285 -50 324 -143 84 -203 -136 -33 -259 -44 -439
-38 -564 20 -649 201 -120 257 114 12 364 4 475 -16z m-2719 -154 c89 -42 157
-103 175 -159 25 -73 -19 -135 -127 -182 -94 -41 -112 -75 -75 -148 31 -59 91
-107 152 -121 93 -20 129 7 148 114 21 117 67 170 146 168 66 -1 120 -33 206
-122 57 -61 82 -80 101 -80 30 0 45 -15 23 -23 -24 -10 -42 -59 -48 -137 -12
-142 -89 -250 -179 -250 -50 0 -71 11 -138 75 -31 29 -66 56 -79 60 -34 11
-74 -11 -104 -57 -23 -35 -27 -53 -27 -110 0 -123 38 -159 142 -137 32 6 81 9
110 7 44 -5 57 -11 86 -43 34 -37 34 -39 30 -109 -5 -72 -22 -117 -74 -193
-20 -30 -25 -47 -21 -79 l4 -41 -39 14 c-34 12 -48 11 -120 -8 -131 -34 -243
-14 -281 50 -27 46 -21 104 19 193 36 80 36 80 17 106 -25 34 -84 54 -163 56
-109 2 -173 -54 -137 -120 74 -138 79 -149 74 -187 -6 -47 -21 -65 -72 -88
-49 -23 -149 -24 -225 -4 -64 17 -128 19 -165 5 l-26 -10 6 45 c6 38 3 53 -23
103 -43 82 -65 165 -57 211 13 79 72 107 199 97 95 -7 122 3 149 54 14 27 17
53 15 112 -3 66 -7 82 -33 119 -38 54 -76 82 -111 82 -21 0 -41 -14 -81 -57
-66 -71 -108 -96 -157 -96 -49 0 -94 29 -129 84 -25 41 -36 74 -57 176 -6 34
-20 65 -36 81 l-26 27 31 7 c17 4 42 21 58 41 110 138 173 184 250 184 72 0
117 -51 148 -169 20 -78 32 -98 67 -110 44 -16 92 6 153 70 41 43 55 65 55 87
0 33 -12 45 -94 93 -111 65 -138 135 -83 218 33 50 89 87 180 116 70 23 117
57 117 84 0 9 10 -1 23 -22 17 -31 38 -46 103 -77z m4960 -31 c10 -9 40 -24
65 -33 109 -41 199 -147 185 -218 -11 -56 -53 -92 -169 -144 -50 -22 -64 -52
-49 -101 26 -88 113 -152 205 -153 61 0 92 28 102 91 12 77 35 135 66 165 67
64 206 19 292 -94 42 -55 80 -82 117 -82 21 0 21 -1 -4 -31 -28 -33 -32 -45
-40 -129 -11 -108 -51 -191 -112 -231 -61 -40 -123 -20 -216 67 -61 59 -94 68
-137 38 -35 -25 -61 -91 -61 -157 0 -110 42 -156 127 -136 60 14 151 11 183
-6 39 -20 62 -67 61 -124 -1 -64 -14 -103 -62 -183 -35 -58 -41 -74 -36 -107
l5 -39 -27 14 c-33 18 -69 18 -123 0 -114 -37 -220 -26 -275 29 -46 46 -45
100 3 207 34 75 35 80 20 103 -28 42 -73 59 -156 60 -85 0 -126 -16 -149 -57
-15 -26 -14 -31 33 -122 42 -81 48 -100 43 -133 -13 -79 -110 -116 -241 -92
-39 7 -110 13 -157 14 l-86 0 4 40 c4 32 -3 54 -30 106 -71 135 -70 241 3 281
30 17 49 19 130 14 65 -3 104 -1 120 7 64 31 84 179 36 261 -29 50 -89 106
-114 106 -24 0 -58 -26 -122 -92 -57 -58 -102 -77 -154 -64 -67 17 -130 111
-145 219 -11 77 -33 123 -63 133 -21 6 -19 8 16 21 49 16 69 34 101 89 62 106
205 167 279 119 29 -19 72 -102 82 -158 10 -59 44 -101 83 -105 49 -5 84 13
141 73 77 82 69 115 -41 178 -109 62 -137 136 -83 219 32 50 88 86 182 117 60
20 81 33 97 57 l20 31 16 -26 c9 -14 25 -33 35 -42z m-2526 -1653 c0 -21 42
-51 103 -76 68 -27 147 -94 172 -146 38 -80 -2 -145 -123 -200 -105 -49 -115
-81 -51 -177 72 -109 239 -130 267 -35 5 18 15 60 22 93 10 47 21 68 50 97 32
33 44 38 81 38 70 -1 126 -33 210 -121 53 -55 86 -81 108 -85 l32 -7 -21 -19
c-28 -26 -40 -60 -40 -113 0 -66 -35 -165 -75 -212 -70 -83 -147 -77 -245 18
-60 58 -90 72 -124 59 -57 -21 -91 -102 -83 -197 8 -107 40 -126 169 -103 75
14 135 0 171 -40 24 -27 27 -38 27 -98 0 -69 -16 -112 -76 -207 -19 -31 -24
-50 -21 -82 4 -41 4 -42 -16 -28 -27 19 -79 19 -141 0 -73 -22 -170 -19 -223
6 -78 38 -93 111 -45 214 16 33 32 72 36 88 25 101 -246 139 -309 43 -17 -26
-16 -28 29 -119 67 -134 58 -198 -32 -228 -48 -17 -166 -16 -217 1 -43 14
-136 18 -173 6 -22 -7 -22 -6 -16 34 6 35 1 52 -30 116 -71 143 -69 240 6 281
27 14 52 17 134 15 89 -2 105 1 127 18 35 28 50 79 45 159 -3 57 -8 73 -38
115 -36 49 -74 76 -109 76 -12 0 -46 -27 -82 -65 -34 -35 -77 -71 -97 -81
-100 -47 -206 49 -232 210 -13 81 -23 103 -58 133 l-27 23 29 0 c30 0 67 34
149 133 50 61 132 102 190 94 56 -8 100 -55 122 -133 30 -102 46 -132 76 -144
42 -18 88 2 153 65 48 45 56 59 56 90 0 32 -5 39 -46 63 -134 80 -173 130
-154 200 18 69 114 142 223 172 31 8 57 24 75 45 27 32 42 36 42 11z"/>
<path d="M1653 3688 c8 -85 75 -148 157 -148 84 0 151 59 165 145 l6 40 -17
-33 c-32 -61 -106 -97 -177 -85 -45 7 -103 52 -124 98 -14 30 -14 30 -10 -17z"/>
<path d="M6680 3642 c-1 -108 91 -187 195 -168 48 9 112 68 125 114 16 61 11
69 -15 26 -29 -49 -82 -77 -141 -76 -72 1 -125 39 -150 109 l-13 38 -1 -43z"/>
<path d="M4500 2014 c0 -103 -114 -172 -213 -130 -42 18 -66 45 -83 98 l-14
43 3 -66 c2 -55 8 -73 31 -104 73 -96 226 -81 283 28 19 36 22 124 5 153 -10
16 -11 13 -12 -22z"/>
</g>
</svg>
